<svg width="32" height="32" viewBox="0 0 32 32" fill="none" xmlns="http://www.w3.org/2000/svg">
  <!-- Background circle -->
  <circle cx="16" cy="16" r="16" fill="#0066FF"/>
  
  <!-- Tool/wrench icon representing repair -->
  <path d="M8 12L10 10L14 14L22 6L24 8L16 16L12 12L10 14L8 12Z" fill="white" stroke="white" stroke-width="1"/>
  
  <!-- Device outline (smartphone/tablet) -->
  <rect x="18" y="18" width="8" height="12" rx="1" fill="none" stroke="white" stroke-width="1.5"/>
  <circle cx="22" cy="28" r="0.5" fill="white"/>
  
  <!-- Gear/settings icon -->
  <circle cx="10" cy="22" r="3" fill="none" stroke="white" stroke-width="1.5"/>
  <circle cx="10" cy="22" r="1" fill="white"/>
  <path d="M10 17L10 19M10 25L10 27M15 22L13 22M7 22L5 22M13.5 18.5L12.5 19.5M7.5 25.5L6.5 24.5M13.5 25.5L12.5 24.5M7.5 18.5L6.5 19.5" stroke="white" stroke-width="1"/>
</svg>